<?xml version="1.0" encoding="UTF-8" standalone="no"?>
<svg width="617px" height="244px" viewBox="0 0 617 244" version="1.1" xmlns="http://www.w3.org/2000/svg" xmlns:xlink="http://www.w3.org/1999/xlink">
    <!-- Generator: Sketch 3.6.1 (26313) - http://www.bohemiancoding.com/sketch -->
    <title>logo-white@1,5x</title>
    <desc>Created with Sketch.</desc>
    <defs>
        <path d="M37.3578131,74.7341161 C37.2831362,74.7345016 37.2083749,74.7346944 37.1335291,74.7346944 C31.7286219,74.7346944 26.7575163,73.7540694 22.2200633,71.79279 C17.6826102,69.8315106 13.7624431,67.1821027 10.4594442,63.8444868 C7.1564453,60.506871 4.5874847,56.584371 2.75248531,52.0768692 C0.91748593,47.5693674 0,42.7350582 0,37.5737966 C0,32.2060856 0.934167492,27.3717764 2.8025305,22.8642746 C4.67089351,18.3567728 7.25653568,14.3998649 10.5595346,10.9934323 C13.8625335,7.58699959 17.7993822,4.90318382 22.3701988,2.94190441 C26.9410155,0.980624995 31.9288026,0 37.3337099,0 C42.7386172,0 47.7097228,0.980624995 52.2471758,2.94190441 C56.7846288,4.90318382 60.704796,7.5525917 64.0077948,10.8902075 C67.3107937,14.2278234 69.8797543,18.1503234 71.7147537,22.6578252 C73.5497531,27.165327 74.467239,31.9996361 74.467239,37.1608978 C74.467239,41.1522724 73.933429,44.7995092 72.865793,48.3091671 C71.798157,51.818825 70.2634533,55.087575 68.2616358,58.1155151 L66.6607114,59.7345133 L74.3843284,59.7345133 L74.3843284,74.7345135 L37.3574627,74.7345135 Z M37.3574627,60.4431892 C49.2254025,60.4431892 58.8462687,50.183873 58.8462687,37.5283652 C58.8462687,24.8728573 49.2254025,14.6135412 37.3574627,14.6135412 C25.4895229,14.6135412 15.8686567,24.8728573 15.8686567,37.5283652 C15.8686567,50.183873 25.4895229,60.4431892 37.3574627,60.4431892 Z M113.402395,74.6314697 C103.993853,74.6314697 96.587239,71.9476539 91.1823317,66.5799418 C85.7774244,61.2122297 83.0750113,53.1951903 83.0750113,42.528583 L83.0750113,1.23869659 L98.4889291,1.23869659 L98.4889291,42.1156841 C98.4889291,48.0339308 99.823454,52.4897531 102.492544,55.4832848 C105.161634,58.4768166 108.864941,59.97356 113.602576,59.97356 C118.34021,59.97356 122.043517,58.5284284 124.712607,55.6381219 C127.381697,52.7478154 128.716222,48.4124207 128.716222,42.6318077 L128.716222,1.23869659 L144.13014,1.23869659 L144.13014,42.0124594 C144.13014,47.5178051 143.412833,52.3005025 141.978197,56.3606949 C140.543561,60.4208874 138.491729,63.810065 135.822639,66.5283294 C133.153549,69.2465939 129.917326,71.2766597 126.113873,72.6185877 C122.310419,73.9605157 118.073302,74.6314697 113.402395,74.6314697 L113.402395,74.6314697 Z M190.071622,60.0767847 C193.141076,60.0767847 195.976941,59.4918505 198.579304,58.3219645 C201.181667,57.1520786 203.400315,55.5349075 205.235314,53.4704029 C207.070313,51.4058982 208.504928,49.0145496 209.5392,46.2962851 C210.573473,43.5780207 211.090601,40.6705536 211.090601,37.5737966 L211.090601,37.3673472 C211.090601,34.2705902 210.573473,31.3459192 209.5392,28.5932463 C208.504928,25.8405735 207.03695,23.4320209 205.135224,21.3675162 C203.233497,19.3030116 200.981486,17.6686366 198.379123,16.4643422 C195.776761,15.2600478 192.940895,14.6579097 189.871441,14.6579097 C186.735261,14.6579097 183.882714,15.2428439 181.313714,16.4127298 C178.744715,17.5826158 176.542749,19.1997869 174.70775,21.2642915 C172.87275,23.3287961 171.438136,25.7201448 170.403864,28.4384093 C169.369591,31.1566737 168.852463,34.0641408 168.852463,37.1608978 L168.852463,37.3673472 C168.852463,40.4641041 169.369591,43.3887752 170.403864,46.141448 C171.438136,48.8941209 172.906113,51.3026735 174.80784,53.3671782 C176.709567,55.4316828 178.944896,57.0660578 181.513895,58.2703522 C184.082894,59.4746465 186.935441,60.0767847 190.071622,60.0767847 L190.071622,60.0767847 Z M174.957976,71.79279 C170.420523,69.8315106 166.500355,67.1821027 163.197357,63.8444868 C159.894358,60.506871 157.325397,56.584371 155.490398,52.0768692 C153.655398,47.5693674 152.737912,42.7350582 152.737912,37.5737966 C152.737912,32.2060856 153.67208,27.3717764 155.540443,22.8642746 C157.408806,18.3567728 159.994448,14.3998649 163.297447,10.9934323 C166.600446,7.58699959 170.537295,4.90318382 175.108111,2.94190441 C179.678928,0.980624995 184.666715,0 190.071622,0 C195.47653,0 200.447635,0.980624995 204.985088,2.94190441 C209.522541,4.90318382 213.442708,7.5525917 216.745707,10.8902075 C220.048706,14.2278234 222.617667,18.1503234 224.452666,22.6578252 C226.287665,27.165327 227.205151,31.9996361 227.205151,37.1608978 C227.205151,42.5286088 226.270984,47.362918 224.402621,51.8704198 C222.534258,56.3779216 219.948616,60.3348295 216.645617,63.7412621 C213.342618,67.1476948 209.405769,69.8315106 204.834953,71.79279 C200.264136,73.7540694 195.276349,74.7346944 189.871441,74.7346944 C184.466534,74.7346944 179.495429,73.7540694 174.957976,71.79279 Z M266.94103,36.3351 C270.744484,36.3351 273.663757,35.4060869 275.698938,33.5480327 C277.734119,31.6899785 278.751695,29.2126101 278.751695,26.1158531 L278.751695,25.9094037 C278.751695,22.4685626 277.684075,19.8879705 275.548803,18.16755 C273.413531,16.4471295 270.444212,15.5869321 266.640759,15.5869321 L251.326932,15.5869321 L251.326932,36.3351 L266.94103,36.3351 Z M235.913014,1.23869659 L267.941934,1.23869659 C276.816658,1.23869659 283.622736,3.68165711 288.360371,8.56765143 C292.364006,12.6966607 294.365793,18.2019238 294.365793,25.083606 L294.365793,25.2900554 C294.365793,31.1394852 292.981223,35.9049786 290.212042,39.5866786 C287.442862,43.2683785 283.822963,45.9693982 279.352237,47.6898188 L296.467691,73.4959978 L278.451423,73.4959978 L263.437867,50.3736614 L263.237686,50.3736614 L251.326932,50.3736614 L251.326932,73.4959978 L235.913014,73.4959978 L235.913014,1.23869659 Z M333.50113,74.6314697 C324.092587,74.6314697 316.685974,71.9476539 311.281066,66.5799418 C305.876159,61.2122297 303.173746,53.1951903 303.173746,42.528583 L303.173746,1.23869659 L318.587664,1.23869659 L318.587664,42.1156841 C318.587664,48.0339308 319.922189,52.4897531 322.591279,55.4832848 C325.260369,58.4768166 328.963676,59.97356 333.70131,59.97356 C338.438945,59.97356 342.142252,58.5284284 344.811342,55.6381219 C347.480432,52.7478154 348.814957,48.4124207 348.814957,42.6318077 L348.814957,1.23869659 L364.228875,1.23869659 L364.228875,42.0124594 C364.228875,47.5178051 363.511568,52.3005025 362.076932,56.3606949 C360.642296,60.4208874 358.590464,63.810065 355.921374,66.5283294 C353.252284,69.2465939 350.016061,71.2766597 346.212607,72.6185877 C342.409154,73.9605157 338.172037,74.6314697 333.50113,74.6314697 L333.50113,74.6314697 Z M372.936737,1.23869659 L389.55174,1.23869659 L407.968369,31.7932125 L426.384998,1.23869659 L443,1.23869659 L443,73.4959978 L427.686173,73.4959978 L427.686173,26.3223026 L407.968369,57.1864927 L407.568007,57.1864927 L388.050384,26.6319767 L388.050384,73.4959978 L372.936737,73.4959978 L372.936737,1.23869659 Z" id="path-1"></path>
    </defs>
    <g id="Page-1" stroke="none" stroke-width="1" fill="none" fill-rule="evenodd">
        <g id="Artboard-33" transform="translate(-74.000000, -348.000000)">
            <g id="Group" transform="translate(74.000000, 348.000000)">
                <g id="logo" transform="translate(86.000000, 84.000000)">
                    <mask id="mask-2" fill="white">
                        <use xlink:href="#path-1"></use>
                    </mask>
                    <use id="Combined-Shape" fill="#FFFFFF" xlink:href="#path-1"></use>
                </g>
            </g>
        </g>
    </g>
</svg>