<?xml version="1.0" encoding="utf-8"?>
<!-- Generator: Avocode 2.6.0 - http://avocode.com -->
<svg height="20" width="27" xmlns:xlink="http://www.w3.org/1999/xlink" xmlns="http://www.w3.org/2000/svg" viewBox="0 0 27 20">
    <path stroke-linejoin="miter" stroke-linecap="butt" stroke-width="2" stroke="#dc44a3" fill="none" fill-rule="evenodd" d="M 1 1.99 C 1 1.44 1.46 1 2 1 L 12 1 C 12.55 1 13 1.44 13 1.99 L 13 18.01 C 13 18.56 12.54 19 12 19 L 2 19 C 1.45 19 1 18.56 1 18.01 L 1 1.99 Z M 1 1.99" />
    <path stroke-linejoin="miter" stroke-linecap="butt" stroke-width="1" stroke="#dc44a3" fill="none" fill-rule="evenodd" d="M 14.27 13.07 L 13.01 17.62 L 17.56 19.48 L 21.41 16.45 L 24.65 15.8 L 25.65 9.25 L 17.89 7.91 L 14.27 13.07 Z M 14.27 13.07" />
    <path fill="#dc44a3" fill-rule="evenodd" d="M 21.5 12 C 21.5 12 26 6.99 26 4.5 C 26 2.01 23.99 0 21.5 0 C 19.01 0 17 2.01 17 4.5 C 17 6.99 21.5 12 21.5 12 Z M 21.5 12" />
    <path fill="#dc44a3" fill-rule="evenodd" d="M 4 7 L 10 7 L 10 8 L 4 8 L 4 7 Z M 4 7" />
    <path fill="#dc44a3" fill-rule="evenodd" d="M 4 9 L 7 9 L 7 10 L 4 10 L 4 9 Z M 4 9" />
    <path fill="#dc44a3" fill-rule="evenodd" d="M 2 15 L 12 15 L 12 16 L 2 16 L 2 15 Z M 2 15" />
    <path fill="#dc44a3" fill-rule="evenodd" d="M 2 4 L 12 4 L 12 5 L 2 5 L 2 4 Z M 2 4" />
    <path stroke-linejoin="miter" stroke-linecap="butt" stroke-dasharray="1" stroke-width="1" stroke="#dc44a3" fill="none" fill-rule="evenodd" d="M 15.61 11.12 L 19.4 12.69 L 21.69 16.06" />
</svg>