<?xml version="1.0" encoding="utf-8"?>
<!-- Generator: Avocode 2.6.0 - http://avocode.com -->
<svg height="28" width="28" xmlns:xlink="http://www.w3.org/1999/xlink" xmlns="http://www.w3.org/2000/svg" viewBox="0 0 28 28">
    <path fill="#ffffff" opacity="0.1" fill-rule="evenodd" d="M 14 28 C 21.73 28 28 21.73 28 14 C 28 6.27 21.73 0 14 0 C 6.27 0 0 6.27 0 14 C 0 21.73 6.27 28 14 28 Z M 14 28" />
    <path fill="#ffffff" fill-rule="evenodd" d="M 10.41 13.19 C 11.37 15.08 12.92 16.62 14.81 17.59 L 16.27 16.12 C 16.45 15.94 16.72 15.88 16.95 15.96 C 17.7 16.21 18.51 16.34 19.33 16.34 C 19.7 16.34 20 16.64 20 17.01 L 20 19.33 C 20 19.7 19.7 20 19.33 20 C 13.07 20 8 14.93 8 8.67 C 8 8.3 8.3 8 8.67 8 L 11 8 C 11.37 8 11.67 8.3 11.67 8.67 C 11.67 9.5 11.8 10.3 12.05 11.05 C 12.12 11.28 12.07 11.54 11.88 11.73 L 10.41 13.19 L 10.41 13.19 Z M 10.41 13.19" />
</svg>